M48
; DRILL file KiCad 10.0.6 date 2026-10-08T10:48:08
; FORMAT={-:-/ absolute / metric / decimal}
; #@! TF.CreationDate,2026-10-08T10:48:08-07:00
; #@! TF.GenerationSoftware,Kicad,Pcbnew,10.0.6
; #@! TF.FileFunction,Plated,1,4,PTH
FMAT,2
METRIC
; #@! TA.AperFunction,Plated,PTH,ViaDrill
T1C0.300
; #@! TA.AperFunction,Plated,PTH,ViaDrill
T2C0.400
; #@! TA.AperFunction,Plated,PTH,ViaDrill
T3C0.450
; #@! TA.AperFunction,Plated,PTH,ComponentDrill
T4C0.750
; #@! TA.AperFunction,Plated,PTH,ComponentDrill
T5C0.900
; #@! TA.AperFunction,Plated,PTH,ComponentDrill
T6C1.000
; #@! TA.AperFunction,Plated,PTH,ComponentDrill
T7C1.020
; #@! TA.AperFunction,Plated,PTH,ComponentDrill
T8C1.050
; #@! TA.AperFunction,Plated,PTH,ComponentDrill
T9C1.200
; #@! TA.AperFunction,Plated,PTH,ComponentDrill
T10C2.200
; #@! TA.AperFunction,Plated,PTH,ComponentDrill
T11C2.700
; #@! TA.AperFunction,Plated,PTH,ComponentDrill
T12C3.000
%
G90
G05
T1
X50.205Y-102.082
X50.922Y-84.094
X51.615Y-101.569
X55.751Y-84.094
X55.786Y-101.768
X60.51Y-86.424
X60.914Y-117.123
X61.069Y-91.572
X62.511Y-121.846
X63.506Y-75.993
X64.326Y-127.989
X64.956Y-128.739
X69.382Y-113.427
X69.871Y-90.166
X70.571Y-113.169
X71.03Y-122.478
X71.221Y-88.558
X71.965Y-59.514
X72.008Y-103.97
X72.018Y-92.715
X72.23Y-122.477
X72.37Y-134.664
X72.409Y-103.23
X72.646Y-78.037
X72.963Y-95.314
X73.173Y-129.38
X73.201Y-60.448
X73.281Y-97.09
X73.371Y-59.483
X73.626Y-78.037
X73.886Y-103.491
X74.47Y-134.664
X74.77Y-103.99
X74.77Y-122.457
X74.805Y-72.498
X75.14Y-71.577
X75.97Y-122.457
X76.045Y-61.356
X76.357Y-59.584
X80.014Y-130.695
X80.528Y-118.392
X80.79Y-97.051
X80.878Y-55.386
X81.202Y-77.061
X81.612Y-95.8
X81.715Y-78.47
X82.961Y-97.409
X83.358Y-141.005
X83.539Y-118.786
X83.593Y-62.003
X84.323Y-132.565
X84.861Y-128.036
X85.405Y-128.695
X85.593Y-132.565
X86.24Y-74.14
X86.888Y-132.565
X87.018Y-128.696
X88.11Y-83.884
X88.128Y-124.964
X88.133Y-132.565
X88.388Y-126.441
X88.84Y-74.99
X89.116Y-51.542
X89.73Y-67.588
X89.847Y-132.37
X89.929Y-84.934
X90.673Y-132.565
X90.804Y-126.514
X91.8Y-132.564
X93.416Y-126.919
X94.418Y-128.689
X94.646Y-55.347
X96.941Y-124.993
X97.412Y-123.735
X97.5Y-66.817
X98.1Y-128.6
X99.256Y-118.066
X99.536Y-124.206
X99.678Y-128.873
X99.687Y-132.156
X100.394Y-100.9
X100.663Y-132.565
X100.729Y-101.821
X100.802Y-107.38
X100.802Y-106.18
X101.932Y-132.563
X102.496Y-136.207
X102.75Y-64.4
X102.9Y-77.25
X103.564Y-128.339
X104.167Y-124.839
X104.472Y-132.563
X104.485Y-128.674
X105.64Y-90.002
X106.186Y-132.571
X108.053Y-112.626
X108.4Y-79.0
X108.98Y-112.5
X110.289Y-90.002
X110.34Y-94.75
X110.735Y-132.506
X111.206Y-106.279
X111.25Y-75.9
X112.78Y-72.46
X113.858Y-113.127
X115.048Y-106.291
X115.061Y-104.02
X115.231Y-103.055
X115.555Y-122.763
X115.65Y-97.7
X116.554Y-113.351
X119.052Y-129.111
X123.13Y-130.695
X123.183Y-113.261
X124.25Y-97.8
X125.75Y-62.405
X129.656Y-60.754
X130.286Y-61.505
X130.85Y-115.4
X136.302Y-123.123
X136.92Y-112.7
X136.92Y-116.1
X137.042Y-122.581
X139.45Y-104.2
X141.879Y-104.377
X144.24Y-115.65
X144.54Y-112.7
X148.087Y-100.534
X151.984Y-107.394
X151.984Y-106.414
T2
X66.828Y-132.106
X67.965Y-53.898
X69.667Y-103.712
X69.69Y-78.5
X69.69Y-122.398
X73.5Y-136.908
X76.075Y-128.075
X77.075Y-122.275
X77.085Y-90.12
X77.308Y-78.898
X77.31Y-72.271
X77.31Y-103.898
X77.31Y-128.124
X77.365Y-120.272
X78.239Y-136.908
X78.34Y-59.602
X78.616Y-97.55
X78.972Y-128.774
X80.602Y-60.8
X81.159Y-130.145
X90.038Y-121.329
X96.835Y-136.303
X99.225Y-111.175
X100.488Y-127.374
X101.154Y-91.152
X111.459Y-122.487
X113.175Y-136.313
X114.13Y-91.152
X116.009Y-136.106
X123.272Y-75.969
X125.654Y-91.137
X125.975Y-93.475
X131.225Y-132.475
X131.425Y-101.575
X132.425Y-135.425
X135.625Y-105.775
X138.785Y-75.881
X144.926Y-121.605
X146.625Y-116.875
X146.625Y-119.925
X146.625Y-123.425
T3
X62.5Y-128.85
X64.541Y-123.04
X65.7Y-124.6
X66.8Y-73.9
X66.95Y-53.9
X66.95Y-82.9
X67.55Y-71.75
X69.5Y-67.6
X73.6Y-53.4
X76.04Y-134.743
X77.85Y-61.55
X78.864Y-67.749
X80.34Y-133.0
X82.887Y-137.972
X89.307Y-137.972
X90.3Y-74.35
X92.871Y-119.841
X93.45Y-63.95
X98.993Y-97.881
X100.7Y-64.2
X105.539Y-121.874
X112.6Y-132.2
X114.338Y-124.397
X114.4Y-78.35
X115.25Y-131.5
X121.852Y-139.174
X137.63Y-66.619
X137.712Y-136.727
X145.473Y-124.678
X145.999Y-103.162
X149.58Y-109.333
T4
X93.5Y-60.8
X95.5Y-60.8
T5
X54.6Y-113.0
X54.6Y-115.0
X54.6Y-117.0
X54.6Y-119.0
X54.6Y-75.5
X54.6Y-77.5
X54.6Y-79.5
X54.6Y-81.5
X54.6Y-63.0
X54.6Y-65.0
X54.6Y-67.0
X54.6Y-69.0
X54.6Y-100.5
X54.6Y-102.5
X54.6Y-104.5
X54.6Y-106.5
X54.6Y-88.0
X54.6Y-90.0
X54.6Y-92.0
X54.6Y-94.0
X104.6Y-61.7
X104.6Y-63.7
X104.6Y-65.7
X104.6Y-67.7
X104.6Y-73.0
X104.6Y-75.0
X104.6Y-77.0
X104.6Y-79.0
X113.2Y-55.6
X115.2Y-55.6
X117.2Y-55.6
X118.28Y-132.1
X119.2Y-55.6
X120.28Y-132.1
X122.28Y-132.1
X124.28Y-132.1
X124.5Y-55.6
X126.5Y-55.6
X128.5Y-55.6
X130.5Y-55.6
X132.7Y-132.1
X134.7Y-132.1
X136.7Y-132.1
X138.7Y-132.1
X149.4Y-126.7
X149.4Y-128.7
X149.4Y-130.7
X149.4Y-132.7
X149.4Y-61.7
X149.4Y-63.7
X149.4Y-65.7
X149.4Y-67.7
X149.4Y-74.7
X149.4Y-76.7
X149.4Y-78.7
X149.4Y-80.7
X149.4Y-87.7
X149.4Y-89.7
X149.4Y-91.7
X149.4Y-93.7
X149.4Y-100.7
X149.4Y-102.7
X149.4Y-104.7
X149.4Y-106.7
X149.4Y-113.7
X149.4Y-115.7
X149.4Y-117.7
X149.4Y-119.7
T6
X62.73Y-130.73
X62.73Y-133.27
X65.27Y-130.73
X65.27Y-133.27
X103.78Y-93.48
X103.78Y-96.02
X103.78Y-98.56
X103.78Y-101.1
X103.78Y-103.64
X103.78Y-106.18
X103.78Y-108.72
X106.2Y-139.425
X108.7Y-139.425
X111.78Y-66.38
X111.78Y-68.92
X111.78Y-71.46
X111.78Y-74.0
X115.8Y-139.425
X118.3Y-139.425
X119.02Y-93.48
X119.02Y-96.02
X119.02Y-98.56
X119.02Y-101.1
X119.02Y-103.64
X119.02Y-106.18
X119.02Y-108.72
X125.4Y-139.425
X127.9Y-139.425
X128.03Y-93.48
X128.03Y-96.02
X128.03Y-98.56
X128.03Y-101.1
X128.03Y-103.64
X128.03Y-106.18
X128.03Y-108.72
X135.0Y-139.425
X137.5Y-139.425
X143.27Y-93.48
X143.27Y-96.02
X143.27Y-98.56
X143.27Y-101.1
X143.27Y-103.64
X143.27Y-106.18
X143.27Y-108.72
T7
X54.5Y-124.69
X54.5Y-127.23
X54.5Y-129.77
X54.5Y-132.31
X84.9Y-69.914
X84.9Y-72.454
X84.9Y-74.994
X84.9Y-77.534
X84.9Y-80.074
X84.9Y-82.614
X84.9Y-85.154
X84.9Y-87.694
X84.9Y-90.234
X84.9Y-92.774
X84.9Y-95.314
X84.9Y-97.854
X84.9Y-100.394
X84.9Y-102.934
X84.9Y-105.474
X84.9Y-108.014
X84.9Y-110.554
X84.9Y-113.094
X84.9Y-115.634
X84.9Y-118.174
X87.44Y-69.914
X87.44Y-72.454
X87.44Y-74.994
X87.44Y-77.534
X87.44Y-80.074
X87.44Y-82.614
X87.44Y-85.154
X87.44Y-87.694
X87.44Y-90.234
X87.44Y-92.774
X87.44Y-95.314
X87.44Y-97.854
X87.44Y-100.394
X87.44Y-102.934
X87.44Y-105.474
X87.44Y-108.014
X87.44Y-110.554
X87.44Y-113.094
X87.44Y-115.634
X87.44Y-118.174
T8
X102.51Y-114.15
X102.51Y-126.85
X105.05Y-114.15
X105.05Y-126.85
X107.59Y-114.15
X107.59Y-126.85
X110.13Y-114.15
X110.13Y-126.85
X112.67Y-114.15
X112.67Y-126.85
X115.21Y-114.15
X115.21Y-126.85
X117.75Y-114.15
X117.75Y-126.85
X120.29Y-114.15
X120.29Y-126.85
X126.76Y-114.15
X126.76Y-126.85
X129.3Y-114.15
X129.3Y-126.85
X131.84Y-114.15
X131.84Y-126.85
X134.38Y-114.15
X134.38Y-126.85
X136.92Y-114.15
X136.92Y-126.85
X139.46Y-114.15
X139.46Y-126.85
X142.0Y-114.15
X142.0Y-126.85
X144.54Y-114.15
X144.54Y-126.85
T9
X59.78Y-69.914
X59.78Y-72.454
X59.78Y-74.994
X59.78Y-77.534
X59.78Y-80.074
X59.78Y-82.614
X59.78Y-85.154
X59.78Y-87.694
X59.78Y-90.234
X59.78Y-92.774
X59.78Y-95.314
X59.78Y-97.854
X59.78Y-100.394
X59.78Y-102.934
X59.78Y-105.474
X59.78Y-108.014
X59.78Y-110.554
X59.78Y-113.094
X59.78Y-115.634
X59.78Y-118.174
X62.32Y-69.914
X62.32Y-72.454
X62.32Y-74.994
X62.32Y-77.534
X62.32Y-80.074
X62.32Y-82.614
X62.32Y-85.154
X62.32Y-87.694
X62.32Y-90.234
X62.32Y-92.774
X62.32Y-95.314
X62.32Y-97.854
X62.32Y-100.394
X62.32Y-102.934
X62.32Y-105.474
X62.32Y-108.014
X62.32Y-110.554
X62.32Y-113.094
X62.32Y-115.634
X62.32Y-118.174
T10
X61.275Y-65.199
X84.125Y-122.999
T11
X52.85Y-54.2
X52.85Y-140.2
T12
X98.85Y-54.2
X98.85Y-140.2
X144.85Y-54.2
X144.85Y-140.2
M30
